<?xml version="1.0" encoding="utf-8"?>
<!-- Generator: Adobe Illustrator 26.0.2, SVG Export Plug-In . SVG Version: 6.00 Build 0)  -->
<svg version="1.1" id="Layer_1" xmlns="http://www.w3.org/2000/svg" xmlns:xlink="http://www.w3.org/1999/xlink" x="0px" y="0px"
	 viewBox="0 0 5578.6 1518.7" style="enable-background:new 0 0 5578.6 1518.7;" xml:space="preserve">
<style type="text/css">
	.st0{fill:#FFFFFF;}
	.st1{fill-rule:evenodd;clip-rule:evenodd;fill:#FFFFFF;}
	.st2{fill:#FED31D;}
</style>
<g>
	<path class="st0" d="M3724.2,1079.7h-110.4l-50.4-252l-15.2,40v212h-106.4v-616h106.4v181.6l64.8-181.6h101.6l-84.8,224
		L3724.2,1079.7z"/>
	<path class="st0" d="M4087.4,1079.7H4009l-79.2-316v316h-88v-616h89.6l68,272.8V463.7h88V1079.7z"/>
	<path class="st0" d="M4344.2,1079.7h-106.4v-616h106.4V1079.7z"/>
	<path class="st0" d="M4751.4,1078.1h-28.8l-16-26.4c-22.4,25.6-50.4,36-100,36c-72,0-118.4-40.8-118.4-123.2V590.1
		c0-91.2,51.2-136.8,130.4-136.8c72.8,0,118.4,28.8,118.4,137.6c0,29.6-2.4,57.6-5.6,78.4l-80.8-6.4c2.4-17.6,4.8-33.6,4.8-60.8
		c0-58.4-12.8-67.2-30.4-67.2c-24,0-30.4,12.8-30.4,40.8v396.8c0,23.2,8.8,35.2,29.6,35.2c16.8,0,25.6-12,25.6-35.2V783.7h101.6
		V1078.1z"/>
	<path class="st0" d="M5168.2,1079.7h-105.6v-272h-60.8v270.4h-105.6V463.7h105.6v257.6h60.8V463.7h105.6V1079.7z"/>
	<path class="st0" d="M5578.6,548.5h-84v531.2h-106.4V548.5H5305v-84.8h273.6V548.5z"/>
</g>
<g>
	<path class="st0" d="M349.6,1079.7H247.2v-288l-45.6,288H136l-48-288v288H0v-616h123.2L172,826.1l57.6-362.4h120V1079.7z"/>
	<path class="st0" d="M759.2,951.7c0,100.8-60,136-131.2,136c-72.8,0-134.4-37.6-134.4-136V589.3c0-100,62.4-136,134.4-136
		s131.2,35.2,131.2,136V951.7z M653.6,568.5c0-24-13.6-33.6-26.4-33.6c-16,0-27.2,9.6-27.2,33.6v403.2c0,23.2,10.4,33.6,28,33.6
		c16,0,25.6-9.6,25.6-32.8V568.5z"/>
	<path class="st0" d="M1154.4,463.7l-75.2,616H952.8l-76.8-616h109.6l33.6,401.6l37.6-401.6H1154.4z"/>
	<path class="st0" d="M1391.2,1079.7h-106.4v-616h106.4V1079.7z"/>
	<path class="st0" d="M1757.6,1078.1h-216V463.7h215.2v84.8H1648v170.4h90.4v86.4H1648v188h109.6V1078.1z"/>
</g>
<g>
	<g>
		<path class="st1" d="M2910.8,1170.4l-116.1-103.2l-554.1,313.5c-0.8,0.5-1.8-0.2-1.6-1.1l54.6-310.5c0.1-0.4,0.3-0.8,0.7-1.1
			l152.9-107.1c0.4-0.3,0.6-0.6,0.7-1.1l16.4-93.3c0.3-1.5-1.4-2.5-2.6-1.6l-151.9,112.1l-63.9,47.1c-0.8,0.6-1.9-0.1-1.7-1.1
			c17.3-100.9,20-174.1,37.5-275.5c0.1-0.6,0.2-1.2,0.3-1.8c26.2-149,168.3-248.6,317.3-222.4c140.3,24.7,236.8,152.1,225.7,291.3
			l5.7,96.2l81.8,258.5C2912.8,1170.3,2911.6,1171.1,2910.8,1170.4z"/>
		<path class="st1" d="M2333.4,467.3c-19.5-62-40.5-124.9-59.6-187.6c-11-36.2,10.7-74.2,47.5-83c8.9-2.1,18-4.1,27-5.8l43.5,133.2
			l-22.2-136.8c88.8-13.3,182.1-5.5,272.7,26.7c4.3,1.5,8.6,3.1,12.9,4.8l-9.2,114.2l32.1-105c65.4,27.8,123.5,65.6,171.8,111.1
			l-31.8,101.3l48.9-84.5c40.6,41.9,73.2,89.7,96.1,141.7l-54.9,65.4l61.1-50.7c20.6,51.6,31.8,107.2,31.9,165.2l-47.7,27.3
			l47.6-20.4c-0.1,4.6-0.2,9.1-0.4,13.7c-4.9,113.9-70.4,196.9-22.1,304.7c0.6,1.4-1.1,2.5-2.2,1.5c-93.8-96.6-33.1-164-72.2-290.7
			c-36.7-119-127.2-219.8-253.6-264.7C2542.6,410.4,2428.9,420.3,2333.4,467.3L2333.4,467.3z"/>
	</g>
	<g>
		<g>
			<path class="st2" d="M2039.2,24.2c-10.5-6.1-23.6-6.1-34.1,0c-10.5,6.1-17,17.4-17,29.5v1410.3c0,12.2,6.5,23.5,17.1,29.6
				c5.3,3,11.2,4.6,17.1,4.5c5.9,0,11.8-1.5,17.1-4.6l141.9-82c-7.2-13.2-9.7-28.5-7.1-43.5l5.9-33.7l-124.5,71.9V111.6l161.9,93.5
				c1.6-3.3,3.3-6.6,5.1-9.9c8.8-15.3,20.4-28.5,34.4-39.2c1.5-1.2,3.1-2.3,4.6-3.4L2039.2,24.2z M2929.2,538l-21,25l26.4-21.9
				L2929.2,538z M3260.6,729.4l-192.7-111.2l-0.8,61.5l0,16l109.7,63.3L3041.5,837c-6.7,25.9-12.8,50.3-14.3,72.9
				c-0.3,4.6-0.4,9.1-0.3,13.4l233.7-134.9c10.5-6.1,17.1-17.4,17-29.6C3277.7,746.7,3271.1,735.4,3260.6,729.4z"/>
		</g>
	</g>
</g>
</svg>
